G04 ================== begin FILE IDENTIFICATION RECORD ==================*
G04 Layout Name:  C:/USERS/USER/DESKTOP/WORK/DA_CONVERTOR/allegro/DA_CONVERTOR.brd*
G04 Film Name:    Soldermask_BOTTOM*
G04 File Format:  Gerber RS274X*
G04 File Origin:  Cadence Allegro 17.2-P019*
G04 Origin Date:  Wed Jul 31 16:09:55 2019*
G04 *
G04 Layer:  PIN/SOLDERMASK_BOTTOM*
G04 Layer:  BOARD GEOMETRY/DESIGN_OUTLINE*
G04 *
G04 Offset:    (0.000 0.000)*
G04 Mirror:    No*
G04 Mode:      Positive*
G04 Rotation:  0*
G04 FullContactRelief:  No*
G04 UndefLineWidth:     0.000*
G04 ================== end FILE IDENTIFICATION RECORD ====================*
%FSLAX25Y25*MOMM*%
%IR0*IPPOS*OFA0.00000B0.00000*MIA0B0*SFA1.00000B1.00000*%
%ADD13C,2.032*%
%ADD14R,2.032X2.032*%
%ADD11C,1.905*%
%ADD10C,3.683*%
%ADD12R,1.905X1.905*%
%LPD*%
G75*
G54D10*
X500000Y500000D03*
Y6500000D03*
X9500000Y500000D03*
Y6500000D03*
G54D11*
X500000Y2738000D03*
Y2992000D03*
Y3246000D03*
Y3500000D03*
X1800000Y3512000D03*
X2050000Y846000D03*
Y1100000D03*
X2562000Y2750000D03*
X2308000D03*
X2054000D03*
X2562000Y3512000D03*
X2308000D03*
X2054000D03*
X4254000Y2750000D03*
Y3512000D03*
X4000000D03*
X4762000Y2750000D03*
X4508000D03*
X4762000Y3512000D03*
X4508000D03*
X6350000D03*
X7112000Y2750000D03*
X6858000D03*
X6604000D03*
X7112000Y3512000D03*
X6858000D03*
X6604000D03*
X7300000Y5712000D03*
X7554000Y4950000D03*
X7808000D03*
X8062000D03*
X7554000Y5712000D03*
X7808000D03*
X8062000D03*
X8316000Y4950000D03*
X8570000D03*
X8824000D03*
X8316000Y5712000D03*
X8570000D03*
X8824000D03*
X9500000Y2996000D03*
Y3250000D03*
G54D12*
X1800000Y2750000D03*
X4000000D03*
X6350000D03*
X7300000Y4950000D03*
G54D13*
X1700000Y4750000D03*
Y5766000D03*
X2650000Y1100000D03*
Y2116000D03*
X2350000Y4784000D03*
Y5800000D03*
X3350000Y1100000D03*
Y2116000D03*
X3150000Y2684000D03*
Y3700000D03*
X3000000Y5764400D03*
X3950000Y1084000D03*
Y2100000D03*
X4150000Y4800000D03*
X3550000Y4835600D03*
X4150000Y5816000D03*
X4550000Y1100000D03*
Y2116000D03*
X4700000Y4800000D03*
Y5816000D03*
X5550000Y2700000D03*
Y3716000D03*
X5750000Y4800000D03*
X5200000D03*
X5750000Y5816000D03*
X5200000D03*
X6150000Y4800000D03*
Y5816000D03*
X7750000Y1400000D03*
Y2416000D03*
X8850000Y1400000D03*
X8300000D03*
X8850000Y2416000D03*
X8300000D03*
Y3150000D03*
X8850000D03*
Y4166000D03*
X8300000D03*
G54D14*
X3000000Y4850000D03*
X3550000Y5750000D03*
M02*
